<svg xmlns="http://www.w3.org/2000/svg" width="23.136" height="25.707" viewBox="0 0 23.136 25.707">
  <path id="Icon_metro-event-available" data-name="Icon metro-event-available" d="M23.818,16.787l-1.362-1.362L16.183,21.7l-2.725-2.725L12.1,20.334l4.087,4.087Zm3.175-10.36H25.707V3.856H23.136V6.427H12.854V3.856H10.283V6.427H9A2.559,2.559,0,0,0,6.44,9L6.427,26.992A2.57,2.57,0,0,0,9,29.563H26.992a2.57,2.57,0,0,0,2.571-2.571V9A2.57,2.57,0,0,0,26.992,6.427Zm0,20.566H9V12.854H26.992Z" transform="translate(-6.427 -3.856)" fill="#ff5618"/>
</svg>
