<svg id="Layer_2" data-name="Layer 2" xmlns="http://www.w3.org/2000/svg" width="40" height="40" viewBox="0 0 40 40">
  <g id="invisible_box" data-name="invisible box">
    <rect id="Rectangle_4" data-name="Rectangle 4" width="40" height="40" fill="none"/>
  </g>
  <g id="icons_Q2" data-name="icons Q2" transform="translate(4 4)">
    <path id="Path_9" data-name="Path 9" d="M32.8,7.2V26.4H11.68l-.96.88L7.2,30.64V7.2H32.8M34.4,4H5.6A1.6,1.6,0,0,0,4,5.6V34.4a1.584,1.584,0,0,0,2.72,1.12l6.24-5.92H34.4A1.6,1.6,0,0,0,36,28V5.6A1.6,1.6,0,0,0,34.4,4Z" transform="translate(-4 -4)"/>
    <rect id="Rectangle_5" data-name="Rectangle 5" width="20" height="4" rx="2" transform="translate(6 7.778)"/>
    <rect id="Rectangle_6" data-name="Rectangle 6" width="12" height="4" rx="2" transform="translate(7.143 14)"/>
  </g>
</svg>
